<svg width="101" height="102" viewBox="0 0 101 102" fill="none" xmlns="http://www.w3.org/2000/svg">
<path d="M35.9312 63.4386C35.0772 63.3916 32.7852 63.4316 32.5272 63.4366C31.7102 63.4516 31.0542 64.1186 31.0542 64.9366V78.9166C31.0542 79.7456 31.7262 80.4166 32.5542 80.4166C33.3822 80.4166 34.0542 79.7456 34.0542 78.9166V73.4266H36.2602C38.1872 73.4266 41.0542 72.1516 41.0542 68.6366C41.0542 66.8016 40.3882 63.6866 35.9312 63.4386ZM36.2602 70.4266H34.0542V66.4186C34.7332 66.4126 35.4282 66.4156 35.7652 66.4346C37.2842 66.5186 38.0542 66.8826 38.0542 68.6376C38.0542 70.1586 36.9202 70.4116 36.2602 70.4266Z" fill="black"/>
<path d="M68.0542 63.4165H62.0542C61.2262 63.4165 60.5542 64.0875 60.5542 64.9165V78.9165C60.5542 79.7455 61.2262 80.4165 62.0542 80.4165C62.8822 80.4165 63.5542 79.7455 63.5542 78.9165V73.4165H67.5542C68.3822 73.4165 69.0542 72.7455 69.0542 71.9165C69.0542 71.0875 68.3822 70.4165 67.5542 70.4165H63.5542V66.4165H68.0542C68.8822 66.4165 69.5542 65.7455 69.5542 64.9165C69.5542 64.0875 68.8822 63.4165 68.0542 63.4165Z" fill="black"/>
<path d="M46.5542 63.4165C45.7262 63.4165 45.0542 64.0875 45.0542 64.9165V78.8895C45.0542 79.6645 45.6452 80.3125 46.4172 80.3835C46.4692 80.3885 46.8052 80.4165 47.3272 80.4165C48.9542 80.4165 52.3932 80.1405 54.7282 78.0085C56.2712 76.6005 57.0532 74.6845 57.0532 72.3145C57.0542 64.9595 51.3442 63.4165 46.5542 63.4165ZM52.7142 75.7855C51.4012 76.9895 49.3872 77.3185 48.0542 77.3945V66.4635C51.2192 66.6875 54.0542 67.8185 54.0542 72.3135C54.0542 73.8225 53.6162 74.9585 52.7142 75.7855Z" fill="black"/>
<path d="M80.1212 30.8405L61.8612 12.3615C61.5792 12.0765 61.1952 11.9155 60.7942 11.9155H21.0542C20.2262 11.9155 19.5542 12.5865 19.5542 13.4155V88.4155C19.5542 89.2445 20.2262 89.9155 21.0542 89.9155H79.0542C79.8822 89.9155 80.5542 89.2445 80.5542 88.4155V31.8945C80.5542 31.5005 80.3992 31.1215 80.1212 30.8405ZM62.5542 17.3315L75.4842 30.4165H62.5542V17.3315ZM22.5542 86.9165V14.9165H59.5542V31.9165C59.5542 32.7455 60.2262 33.4165 61.0542 33.4165H77.5542V86.9165H22.5542Z" fill="black"/>
</svg>
