<svg width="56" height="56" viewBox="0 0 56 56" fill="none" xmlns="http://www.w3.org/2000/svg">
<g clip-path="url(#clip0_1276_8617)">
<path d="M28.3042 0.666992C13.1165 0.666992 0.804199 12.9793 0.804199 28.167C0.804199 43.3547 13.1165 55.667 28.3042 55.667C43.4919 55.667 55.8042 43.3547 55.8042 28.167C55.8042 12.9793 43.4919 0.666992 28.3042 0.666992ZM43.7735 13.4483L37.6162 42.3648C37.5008 42.9325 36.8539 43.2108 36.3626 42.903L26.8938 36.623L21.9133 41.2578C21.4699 41.637 20.7834 41.4524 20.5905 40.9015L17.3476 30.6737L8.63951 27.1024C7.97142 26.7979 7.9809 25.7339 8.66572 25.4679L42.6593 12.5092C43.2716 12.2716 43.904 12.8048 43.7735 13.4483Z" fill="white"/>
<path d="M21.6374 37.8683L22.1906 32.6106L37.5478 17.5991L19.0085 29.7743L21.6374 37.8683Z" fill="white"/>
</g>
<defs>
<clipPath id="clip0_1276_8617">
<rect width="55" height="55" fill="white" transform="translate(0.804199 0.666992)"/>
</clipPath>
</defs>
</svg>
