<svg width="56" height="56" viewBox="0 0 56 56" fill="none" xmlns="http://www.w3.org/2000/svg">
<g clip-path="url(#clip0_1276_8615)">
<path d="M28.3042 0.666992C13.1165 0.666992 0.804199 12.9793 0.804199 28.167C0.804199 43.3547 13.1165 55.667 28.3042 55.667C43.4919 55.667 55.8042 43.3547 55.8042 28.167C55.8042 12.9793 43.4919 0.666992 28.3042 0.666992ZM40.2295 31.8019C40.4459 32.0696 40.9606 32.591 41.7748 33.3673H41.7938L41.8127 33.3857L41.8317 33.4052L41.8702 33.4431C43.6636 35.1095 44.8783 36.5154 45.5146 37.6603C45.553 37.7233 45.5943 37.8036 45.6389 37.899C45.683 37.9943 45.7276 38.1627 45.7722 38.4042C45.8163 38.6468 45.8129 38.8621 45.7627 39.0528C45.712 39.2429 45.553 39.4192 45.2859 39.5776C45.0188 39.737 44.6435 39.8162 44.16 39.8162L39.2753 39.8932C38.9703 39.9568 38.6139 39.925 38.2068 39.7978C37.7991 39.6701 37.469 39.5301 37.2147 39.3779L36.8327 39.1481C36.4507 38.881 36.0057 38.4739 35.4971 37.9274C34.9879 37.3803 34.5524 36.8873 34.1899 36.4484C33.8274 36.0096 33.4393 35.6415 33.0255 35.3415C32.6117 35.0425 32.2525 34.9438 31.9475 35.0459C31.9096 35.0593 31.8583 35.0816 31.7947 35.1128C31.7305 35.1446 31.6229 35.2361 31.4701 35.3894C31.3173 35.5422 31.1807 35.7302 31.0597 35.9521C30.9386 36.1752 30.8305 36.5059 30.7351 36.9448C30.6397 37.3831 30.5979 37.8766 30.6113 38.4237C30.6113 38.6139 30.5884 38.7896 30.5444 38.9485C30.4998 39.1074 30.4518 39.2251 30.4011 39.3009L30.3246 39.3963C30.0954 39.6389 29.7586 39.7783 29.3136 39.8162H27.1191C26.2157 39.8675 25.2872 39.7627 24.3336 39.5017C23.3799 39.2402 22.5429 38.9039 21.8246 38.4901C21.1052 38.0774 20.4505 37.6575 19.8593 37.2314C19.2677 36.8048 18.8193 36.4395 18.5142 36.1345L18.0374 35.6761C17.9103 35.5495 17.7352 35.3582 17.5127 35.1033C17.2901 34.849 16.8356 34.2707 16.1486 33.3673C15.4615 32.4639 14.7873 31.5041 14.1259 30.4858C13.4645 29.468 12.6854 28.1257 11.7881 26.4594C10.8914 24.7936 10.0616 23.0637 9.29813 21.2697C9.22172 21.0667 9.18324 20.8949 9.18324 20.755C9.18324 20.6155 9.20221 20.5135 9.24069 20.4493L9.31709 20.335C9.50781 20.093 9.8703 19.972 10.4045 19.972L15.6327 19.9341C15.7855 19.9597 15.9317 20.001 16.0716 20.0584C16.2116 20.1153 16.3137 20.1694 16.3772 20.2201L16.4726 20.2776C16.6761 20.4181 16.8284 20.6211 16.9304 20.8882C17.1847 21.5251 17.4775 22.1832 17.8082 22.8635C18.1389 23.5439 18.3999 24.0625 18.5906 24.4183L18.8957 24.9721C19.2643 25.735 19.6207 26.3969 19.9642 26.9563C20.3083 27.5162 20.6161 27.9523 20.8899 28.2635C21.1632 28.5752 21.427 28.8206 21.6818 28.9979C21.9361 29.1764 22.1525 29.2656 22.331 29.2656C22.5089 29.2656 22.6806 29.2338 22.8462 29.1702C22.8713 29.1574 22.9031 29.1256 22.9416 29.0749C22.9801 29.0241 23.0559 28.8842 23.1708 28.6544C23.2851 28.4258 23.371 28.1268 23.4285 27.7577C23.4859 27.3896 23.5461 26.8743 23.6097 26.2129C23.6733 25.5509 23.6733 24.7563 23.6097 23.8277C23.584 23.3186 23.5266 22.8546 23.4379 22.4347C23.3487 22.0153 23.2595 21.7225 23.1708 21.5569L23.0559 21.3282C22.7381 20.896 22.1977 20.6222 21.4342 20.5073C21.2686 20.4828 21.3004 20.33 21.5296 20.0501C21.746 19.808 21.9874 19.6179 22.2546 19.4773C22.9288 19.1472 24.449 18.9944 26.8152 19.0189C27.8581 19.0323 28.7169 19.1143 29.3911 19.2671C29.6454 19.3312 29.8584 19.4165 30.0302 19.5247C30.202 19.6324 30.3325 19.7857 30.4217 19.982C30.5104 20.1794 30.5773 20.383 30.6219 20.5927C30.6665 20.8029 30.6888 21.0929 30.6888 21.461C30.6888 21.8301 30.6827 22.1804 30.6698 22.5105C30.657 22.8412 30.6414 23.2901 30.6224 23.8556C30.6035 24.4217 30.5934 24.947 30.5934 25.4299C30.5934 25.5705 30.5873 25.837 30.5745 26.2313C30.5617 26.6261 30.5578 26.9312 30.565 27.147C30.5711 27.3634 30.5934 27.6216 30.6314 27.9199C30.6698 28.2189 30.7429 28.4676 30.8511 28.6639C30.9587 28.8613 31.102 29.0169 31.2805 29.1312C31.382 29.1574 31.4902 29.1825 31.6051 29.2082C31.7194 29.2333 31.8845 29.1641 32.1008 28.9979C32.3167 28.8329 32.5587 28.6131 32.8258 28.3399C33.0929 28.0672 33.4236 27.6411 33.8179 27.0617C34.2116 26.4839 34.6444 25.7997 35.1151 25.0106C35.8785 23.6878 36.5589 22.2562 37.1567 20.717C37.2075 20.5893 37.271 20.4783 37.3474 20.383C37.4238 20.2871 37.4935 20.2201 37.5571 20.1822L37.6335 20.1248C37.6586 20.112 37.6904 20.0963 37.7289 20.0774C37.7674 20.059 37.8499 20.0395 37.977 20.0199C38.1042 20.0015 38.2313 19.9982 38.3591 20.011L43.8544 19.972C44.3501 19.909 44.7572 19.9246 45.0751 20.0194C45.393 20.1147 45.5904 20.2201 45.6668 20.3345L45.7817 20.5252C46.0739 21.34 45.1203 23.2087 42.9197 26.1348C42.6141 26.5425 42.2003 27.0834 41.6794 27.7571C40.6873 29.0297 40.1152 29.8629 39.9635 30.2583C39.746 30.7786 39.8352 31.2939 40.2295 31.8019Z" fill="white"/>
</g>
<defs>
<clipPath id="clip0_1276_8615">
<rect width="55" height="55" fill="white" transform="translate(0.804199 0.666992)"/>
</clipPath>
</defs>
</svg>
