<?xml version="1.0" encoding="UTF-8"?> <svg xmlns="http://www.w3.org/2000/svg" viewBox="0 0 2067.08 1823.32"> <defs> <style>.cls-1{fill:none;}.cls-2{fill:#fff;}</style> </defs> <g id="Layer_2" data-name="Layer 2"> <g id="Layer_1-2" data-name="Layer 1"> <rect class="cls-1" x="789.42" y="521.56" width="266.72" height="212.86"></rect> <rect class="cls-1" x="789.42" y="521.57" width="266.73" height="212.86"></rect> <path class="cls-2" d="M634,845.47c-108.62-7.66-174.56-.31-313.66,27.85C214,894.84,158.79,898.94,117.17,896.25c60.22,74,.13,161.28-18.94,190.37s-59,93.36-84.59,134.59-7.28,120.51-7.28,120.51S122.48,1289.36,349.3,1306c212,15.52,331.14,138.24,602.36,23.84,8.38-252.4,109-444.74,147-512.78C903.21,850.54,784.34,856.08,634,845.47ZM915.53,1251.1c-57.18-35.35-173.41-104.92-285.17-158,38.34-12.11,74.38-23.45,106.07-33.53,97.63-31,183.33-72.56,245.2-106.73-13,32.77-25.81,68.16-32.58,94.34C932.65,1110.55,921.19,1187.41,915.53,1251.1Zm-377.28-366c74.61-3.77,184.08,9,270.08,7,46.62-1.08,128.22-10.88,175.84-18.08C946.51,900,900,929.23,854.5,950.3c-68.19,31.53-162.66,69.72-290.67,113.11-11.7-4.85-23.2-9.41-34.41-13.57-134.85-50.17-225.57-92.12-283.61-121.69C361,913.35,434.25,890.32,538.25,885.08Zm-368.9,131.25a205,205,0,0,0,11.12-41.8c80.32,43.41,181.34,73.2,296.46,117.45-41.44,13.22-85.74,26.84-133.28,40.86C188,1178.67,89.85,1236.31,38.58,1272.61a172.28,172.28,0,0,1,18.14-51.31C86.08,1169,140.7,1092.72,169.35,1016.33Zm560,289.34c-76.93-1.66-220.52-42.7-240.86-46.27-97.5-17.11-167.24-34.12-269.59-24.65,84.68-35.25,209.58-77,326.88-114.68,103.72,46.75,230.27,129.94,295.16,174.4C806.65,1300.84,765.41,1306.45,729.35,1305.67Z"></path> <rect class="cls-1" x="10.16" y="827.79" width="1073.99" height="501.6"></rect> <rect class="cls-1" x="10.17" y="827.79" width="1073.99" height="501.59"></rect> <path class="cls-2" d="M1094.48,1605.43c2.87-6.69,3.06-9.9,3-11.07a12.07,12.07,0,0,0-3.07-.31c-.65,0-1.37,0-2.11.09l-.79,0a10,10,0,0,1-10-10v-5.44a9.72,9.72,0,0,1,.2-2c-96.5,2.12-188.27,2.1-273.93,2.07-54.19,0-105.38,0-155.07.47q-21.48.23-41.56.22c-155.86,0-249.39-9.24-301.49-17.37-47.85-7.46-69.63-15.14-77.31-18.38a150.22,150.22,0,0,0,9.61,36c3.08,1.62,20.45,9.72,72.22,17.36,52.9,7.8,153.69,16.73,333.49,14.93,49.71-.49,100.91-.48,155.11-.47,90.44,0,187.7,0,290.14-2.45C1093.44,1607.91,1094,1606.64,1094.48,1605.43Z"></path> <path class="cls-2" d="M831,436.72c10.61.65,21,1.37,32,2.14,90.46,6.33,193,13.51,429-28.33l8.42-1.5L725.64,56.17S655.07,238.42,585.67,463C670.67,446.92,751.07,431.91,831,436.72Z"></path> <path class="cls-2" d="M1970.06,1464.11c-4.79,41.56-13.45,79.09-25.74,111.54-1.2,3.18-2.45,6.29-3.72,9.37l.05.16-.14,0c-15.84,38.27-37,69-63.14,91.45a182.07,182.07,0,0,1-23.82,17.37l36.73-1.22a406.93,406.93,0,0,0,35.65-31.66c88.8-88.08,68.23-277.67,68.23-277.67l-21.75,2.26h0l2.07,0A708.78,708.78,0,0,1,1970.06,1464.11Z"></path> <path class="cls-2" d="M1312.2,1597c-27.18-.29-89.57-.15-138.61.64v-24.61h-77.66v10.31c17-2.11,13.82,9.88,10.72,22.46-6.71,27.21-23.74,83.44-45.62,100.85a2.83,2.83,0,0,0,1.76,5c47.85.1,224.09.41,276.31.06a2.82,2.82,0,0,0,2.44-4.21c-7.38-13.19,2.71-55,2.58-81.53C1346.36,1600.38,1321.15,1597,1312.2,1597ZM1311,1630.9h7.72v7.7H1311Zm-14.14,0h7.72v7.7h-7.72Zm14.21,41.45h-16.49v-18.3h16.49Zm18.86,0-11.79,0V1654h12.47Zm1.53-33.75h-6.32v-7.7h6.6C1331.62,1635.21,1331.5,1638.6,1331.5,1638.6Z"></path> <path class="cls-2" d="M10.22,1823.32H2035.41c.87-15.86,7.15-30.22,17.84-42.5H26.84C10.22,1795.88,9.94,1817.47,10.22,1823.32Z"></path> <path class="cls-2" d="M1381.68,459.26c28,141.84,47.29,837,38.54,1008.6,259.16-7,551.57-84,551.57-84L1604.08,592.36Z"></path> <path class="cls-2" d="M1176.06,1522C600.38,1548,283.32,1532.56,229,1497.13a247.88,247.88,0,0,0,1.4,34.46c4.27,2,25.22,10.83,79.32,19.22,56.4,8.74,161.45,18.77,341.62,17,49.71-.5,100.91-.49,155.11-.47,86.49,0,179.23,0,276.77-2.15a10,10,0,0,1,8.31-4.45h84.35a9.93,9.93,0,0,1,5.24,1.5c52.56-2,106.29-4.86,161-8.81,222.84-16.08,422.94-48.16,617.9-98.08l0,.16c1.35-11.93,2.34-27.13,3.22-38.93C1940.52,1424.73,1726.48,1497.23,1176.06,1522Z"></path> <polyline class="cls-2" points="1391.04 1509.79 1353.29 407.23 1600.26 558.92 1611.94 539.88 1352.37 380.45 1345.51 180.49 1328 180.49 1330.96 367.3 732.94 0 721.28 19.04 1331.38 393.77 1349.03 1512.79"></polyline> <path class="cls-2" d="M802.77,1621.66c-54.19,0-105.38,0-155.07.47q-23.75.24-45.67.23c-152.7,0-241.23-8.17-289.63-15.39-40.58-6-59.92-12.31-68-15.64.37.82.74,1.64,1.13,2.45a148.18,148.18,0,0,0,15.69,25.43h0c.07.1,8.16,10.37,59,20,46.23,8.74,138.7,18.8,316.69,17,49.71-.49,100.91-.48,155.12-.47,89.22,0,185.08,0,286-2.36,3.41-5.89,11.42-25.7,13.28-34.14C989.45,1621.7,892.74,1621.68,802.77,1621.66Z"></path> <path class="cls-2" d="M2067.08,1728.27c0-16.79-18.3-19.44-25.14-19.44l-52.82.73-3.32-46.4h-13.14v16.75c-12.19-.47-27.71.73-31.16,3.27l-5.16,27.1c-159.38,2.17-417.44,5.87-506.18,9.62-308.6,9.5-1061.49-15.58-1394.48,47.45H2046.32C2056,1755.14,2067.08,1739.87,2067.08,1728.27Z"></path> <path class="cls-2" d="M1419.22,1704.28c39.36-.31,87.41-.7,138.8-1.13,122.82-17.38,228.45-34.55,343.25-63.91,7-11,18.37-27,24.16-39.94-203.91,51.86-391.55,78.09-573.93,93.27-.19,1.79-.35,3.49-.44,5.06a30.05,30.05,0,0,0,.23,7.18Z"></path> <path class="cls-2" d="M133,1735.63c30.93-3.16,65-6,101.11-8.57l-28.54-283.71c38.62-4.39,90-10.34,103.68-12.44,19.26-3,21.4-11.6,20.53-24.65a15.77,15.77,0,1,0-7.34,1.68c.62,10.51-1.5,13.64-14.33,15.61-13.58,2.09-64.73,8-103.28,12.39l-1.23-12.2H170.3s.65,6.46,1.64,15.91l-12.56,1.41.84,7.38,12.5-1.39c1.83,17.19,4.37,39.91,6.35,53.73,3.51,24.52-10.51,35-36.77,71.79s-50.8,84-29.77,134.83C117.64,1719.75,124.61,1728.87,133,1735.63Z"></path> <path class="cls-2" d="M1893.11,1651.05c-69.45,19-137.58,34-248.2,49.47,63.8-.58,137.31-6.23,192.8-6.85C1857,1682.83,1872.59,1667.23,1893.11,1651.05Z"></path> <path class="cls-2" d="M1042.07,1706c13-1.2,31.64-27.88,34.21-41.58-100.28,2.36-195.55,2.34-284.28,2.32-54.19,0-105.37,0-155.07.47q-21.33.21-41.13.21c-226.9,0-290.22-16.17-314.64-27.52,17.09,14,30.32,21.22,46.81,33.27,1.33.66,97.67,31,141.44,38C511.56,1717.85,929.68,1708.55,1042.07,1706Z"></path> <path class="cls-2" d="M244.14,1717.63q5.78,1,12.15,2.06c8.14,1.31,17.29,2.65,27.52,4,53.92-3.28,107-5,164.74-7.26-54.93-8.2-113.64-23.14-144.83-45.91-32.25-23.52-53.17-46.71-65.84-73a144.57,144.57,0,0,1-10.31-28.91C232,1614.54,239.33,1677.55,244.14,1717.63Z"></path> <path class="cls-2" d="M1959.79,1466.11c-194.73,49.76-393.57,79.76-616.07,95.82-54.11,3.9-107.26,6.71-159.25,8.74a10,10,0,0,1,1.38,5.06v9.94c29.19-.41,63.69-.65,94.44-.65,13.59,0,25.34,0,34,.14,4.61,0,18.84.76,29.76,9.17,220.13-16.18,417-46,609.94-95.33C1956.35,1487.68,1958.26,1476.64,1959.79,1466.11Z"></path> <path class="cls-2" d="M1356.8,1632.29c0,1.77,0,3.56-.13,5.34,211.46-16.71,401.34-47.12,587.77-94.85,3.37-11.24,6.21-22.44,8.61-33.41-191.45,48.8-386.78,79.44-604.93,95.67a2.18,2.18,0,0,1,.21.22C1352.79,1610.11,1357.84,1618.73,1356.8,1632.29Z"></path> <path class="cls-2" d="M1353.38,1672.92c-.5,3.32-1,6.54-1.38,9.58,182.85-15.26,372-41.64,576.45-93.84,1-2.42,10.79-25.35,13.62-34.4-186.09,47.49-374.61,76.75-585.62,93.41C1355.85,1656.37,1354.56,1665,1353.38,1672.92Z"></path> <polygon class="cls-2" points="631.67 718.2 569.69 676.02 486.86 721.17 531.08 649.45 469.64 606.74 558.95 604.62 603.81 533.09 614.8 603.49 703.97 601.96 621.46 647.6 631.67 718.2"></polygon> <path class="cls-2" d="M1078.34,732.73c-8.44,7.31-23.73,2.46-31.3-3.24-2.44-1.83-23.07-17.85-49.91-38.71a172,172,0,0,1-24.58,7.29c-34.76,7.73-68.36-4.55-88.16-14.46l1.86,1.23s1.72,3.71-3.38,6.59-15.2,2.14-20.21,9.88-3.95,13.63-11.37,19.82-22.26,3-27.55-1.74-11.34-18.51.77-22.18,15.94-6.48,19.58-9.84,7.4-15.38,8.42-18.65,2.63-2.26,5.11-2.88l10.27,6.81c1.18-.46,2.54-1.34,2.08-2.91,41,19.38,80.24,12,104.08,3.09l-70.95-55.2-25.86,22.69-40.39-29.93,25.49-24.49-5.49-4.27,12.9-12.34,5.85,3.87,14.89-14.3,71.36,7.24-41.66,36.55c24.4,16.12,54.17,35.77,81.12,53.49,8.78-13,14.4-42.08-17.23-79.48-38.2-45.11-87.89-49.56-87.89-49.56,65.73-7.66,130.79,40.53,142.21,86.59,6.29,25.38,2.19,44.72-11.88,59,25.89,17,45.5,29.7,48.78,31.51C1086.31,710.32,1086.75,725.42,1078.34,732.73Z"></path> <path class="cls-2" d="M259.48,876.08C377.37,855.55,490.62,828,600.66,834.55s218.94,22.61,512.88-28.74c-15.58,27.91-39.64,69.91-64.2,126,32.14-7.72,64.61-19.37,98.36-35.2,0-.55,0-1.1.07-1.65l1.57-.73c8.28-248.26,100.29-405.91,137.66-472.82l-5.24.91.6-1.1c-229.89,40-331.4,32.94-421.11,26.66-11-.77-21.31-1.5-31.87-2.14-79.71-4.79-160.56,10.55-246.16,26.8l-1.87.35-.33,1.09c-18.24,3.4-36.59,6.82-55.07,10-105.06,18.3-157.35,18.93-198.26,16.28,59.22,72.72-1.84,154.68-20.6,183.27s-58,91.81-83.19,132.37c-12.05,19.37-15.66,46-16.15,68.51C223.63,882.08,240.81,879.33,259.48,876.08Zm98.69-198.25c21.42-43.8,47.68-89.32,28.25-141.69,191.75,2.27,305.37-58.2,434.63-46.67,132.62,11.83,250,16.82,387.71-13.51C1134.89,602.44,1115,778.35,1115,778.35s-42.26,15.9-148.69,16c-129.32.17-219.94-46.7-397-47.17-150.71-.4-283.42,39-283.42,39S337.05,721,358.17,677.83Z"></path> <path class="cls-2" d="M1300.48,411.83l-6.59,12c-19.28,34.95-51.54,93.44-79.42,173C1180.88,692.6,1162.08,795,1158.59,901l-.1,3-2.75,1.31c-38.48,18.26-75.33,31.22-111.89,39.21-39.73,94-79.21,224.58-84.77,391.9-231.38,108.17-372.28,23.95-566.92-16.67-11.05,63-16.72,98.73-16.72,98.73,481.52,40.28,724.94,26.28,949.07,5.25C1235.21,1021.09,1295.76,454.19,1300.48,411.83Z"></path> </g> </g> </svg> 